<svg xmlns="http://www.w3.org/2000/svg" xmlns:xlink="http://www.w3.org/1999/xlink" fill="none" version="1.1" width="541.414176940918" height="676.9334716796875" viewBox="0 0 541.414176940918 676.9334716796875"><g style="mix-blend-mode:passthrough"><g style="mix-blend-mode:passthrough" transform="matrix(0.9985392689704895,-0.05403083562850952,0.05403083562850952,0.9985392689704895,-24.960808216379064,13.13338868490473)"><path d="M226.59326694091797,641.3766672363281Q225.34118694091796,627.4266672363281,225.41902694091797,609.1676672363282Q225.46525694091798,598.3236672363281,226.19697694091798,576.6796672363281Q226.46087694091796,568.8746672363282,226.57545694091797,565.0235672363281Q226.70911694091797,550.8677672363281,228.82415694091796,537.4543672363282Q231.09936594091798,523.0250672363281,235.55501694091797,510.3231672363281Q245.64547694091797,481.5579672363281,265.696476940918,464.4034072363281L272.19747694091797,472.0019572363281Q254.19107694091798,487.40726723632815,244.99127694091797,513.6333672363281Q240.83597694091796,525.4789672363281,238.70210694091796,539.0118672363282Q236.70166694091796,551.6985672363281,236.57103694091796,565.3210672363281Q236.45584694091798,569.1916672363282,236.19126694091796,577.0176672363282Q235.46453694091798,598.5136672363282,235.41893694091797,609.2106672363282Q235.34309694091797,626.9996672363282,236.55322694091797,640.4826672363281L226.59326694091797,641.3766672363281Z" fill="#FFFFFF" fill-opacity="1"/></g><g style="mix-blend-mode:passthrough" transform="matrix(0.990185022354126,0.139762744307518,-0.139762744307518,0.990185022354126,60.177112634782134,-26.64894567593808)"><path d="M215.11044915283202,595.2837231445312Q218.17053915283202,586.6107231445312,221.33771915283202,575.0997231445313Q223.25511915283204,568.1307231445312,226.85847915283202,553.7847231445312Q231.05006915283204,537.0967231445312,233.39926915283203,528.7577231445313Q237.35006915283202,514.7342231445313,241.44306915283204,503.9026231445313Q246.40626915283204,490.76782314453123,252.36566915283203,480.10152314453126Q259.122269152832,468.00822314453126,267.57046915283206,458.3093231445313L267.979369152832,457.83982314453124L268.490969152832,457.48492314453125Q287.12236915283205,444.56152314453124,303.04996915283203,456.84382314453126Q308.91376915283206,461.36562314453124,315.24246915283203,470.15822314453123Q317.700669152832,473.57352314453124,320.684569152832,478.24852314453125Q322.458569152832,481.02662314453124,325.99256915283206,486.77742314453127Q332.52656915283205,497.4087231445312,335.991569152832,502.38772314453126Q341.65656915283205,510.52902314453127,346.78156915283205,515.5067231445313Q352.68456915283207,521.2397231445312,358.710569152832,523.6817231445312Q365.29856915283204,526.3507231445312,372.67356915283204,525.3277231445312L373.04856915283204,525.2757231445313L373.427569152832,525.2807231445313Q391.64956915283204,525.5217231445313,406.953569152832,515.0297231445312Q420.48656915283203,505.7522231445313,432.15456915283204,487.8383231445313Q441.75256915283205,473.10272314453124,450.669569152832,451.47522314453124Q454.139569152832,443.05962314453126,457.907569152832,432.63232314453126Q460.14056915283203,426.45352314453123,464.13556915283203,414.83016014453125Q464.42356915283204,413.9946831445312,464.592569152832,413.50300314453125L474.04856915283204,416.75444314453125Q473.907569152832,417.1665831445313,473.592569152832,418.08056314453125Q469.57256915283205,429.77792314453126,467.312569152832,436.03132314453126Q463.46856915283206,446.66672314453126,459.91456915283203,455.28682314453124Q450.64156915283206,477.77792314453126,440.533569152832,493.29612314453124Q412.847569152832,535.8027231445312,373.294569152832,535.2797231445312L373.360569152832,530.2797231445312L374.04856915283204,535.2327231445313Q364.023569152832,536.6237231445313,354.955569152832,532.9497231445313Q347.11856915283204,529.7747231445312,339.81456915283206,522.6807231445313Q333.99856915283203,517.0317231445313,327.783569152832,508.09952314453125Q324.15656915283205,502.8872231445313,317.473269152832,492.01362314453127Q313.98336915283204,486.33552314453124,312.25576915283204,483.62912314453126Q309.42156915283203,479.18902314453123,307.12616915283206,476.00002314453127Q301.65066915283205,468.39272314453126,296.94346915283205,464.76282314453124Q291.96946915283206,460.92722314453124,287.024069152832,460.8727231445313Q281.244169152832,460.80902314453124,274.190469152832,465.70172314453123L271.340769152832,461.59332314453127L275.110969152832,464.87742314453124Q267.345369152832,473.79282314453127,261.09546915283204,484.97902314453125Q255.49826915283202,494.99712314453126,250.79746915283204,507.43732314453126Q246.85786915283202,517.8627231445313,243.02456915283204,531.4697231445313Q240.71406915283202,539.6707231445313,236.55726915283202,556.2207231445312Q232.92656915283203,570.6757231445313,230.97936915283202,577.7527231445313Q227.71842915283204,589.6037231445313,224.54068915283204,598.6107231445312L215.11044915283202,595.2837231445312ZM215.11044915283202,595.2837231445312L224.54068915283204,598.6107231445312L222.87707915283204,603.3257231445313L213.44679915283203,599.9987231445313L215.11044915283202,595.2837231445312ZM474.04856915283204,416.75444314453125L464.592569152832,413.50300314453125L466.217569152832,408.77465314453127L475.674569152832,412.02610314453125L474.04856915283204,416.75444314453125Z" fill="#FFFFFF" fill-opacity="1"/></g><g style="mix-blend-mode:passthrough" transform="matrix(0.15377779304981232,0.9881054759025574,-0.9881054759025574,0.15377779304981232,788.9439836398043,-190.96613894585016)"><path d="M579.1044783569336,379.08712314453123Q582.5210783569336,383.40272314453125,584.4794783569336,390.33912314453124Q586.3526783569336,396.9739231445312,586.4096783569336,404.23442314453126Q586.4710783569336,412.05452314453123,584.3729783569336,418.67722314453124Q581.9350783569336,426.3727231445313,576.9311783569336,431.2185231445312Q568.3026783569336,439.40002314453125,556.2481783569336,440.6168231445313Q545.6695783569336,441.68472314453123,534.4882783569336,437.26012314453124Q524.0313783569336,433.12222314453123,515.9965783569336,425.4241231445312Q507.6036783569336,417.38302314453125,504.6223683569336,408.05332314453125L509.3851283569336,406.53132314453126L504.9648673569336,408.86832314453125Q500.6757683569336,400.7556231445312,500.98471835693357,392.77932314453125Q501.2755983569336,385.26942314453123,505.57113035693357,378.7169231445313Q509.4541483569336,372.79371314453124,516.1170783569336,368.4072831445313Q522.3783783569336,364.2852071445312,530.1506783569336,362.12744314453124Q537.9188783569336,359.97083314453124,545.8908783569336,360.14070314453124Q554.3050783569336,360.3199931445312,561.6746783569336,363.08058314453126Q569.7203783569336,366.0944701445313,575.5693783569336,371.84639314453125Q581.9187783569336,378.0903231445312,585.0898783569336,387.00582314453123L575.6681783569336,390.35702314453124Q573.2675783569337,383.6080231445313,568.5577783569336,378.9764231445312Q564.2232783569336,374.7138631445313,558.1667783569336,372.44512314453124Q552.3907783569337,370.2814731445313,545.6777783569336,370.13843314453123Q539.1764783569336,369.99990314453123,532.8257783569336,371.76300314453124Q526.5659783569336,373.5008531445313,521.6157783569336,376.7597231445312Q516.6821783569336,380.00772314453127,513.9342583569336,384.19942314453124Q511.16066835693357,388.43032314453126,510.9772183569336,393.1664231445312Q510.7722883569336,398.4574231445313,513.8053883569336,404.19442314453124L514.0127983569336,404.5867231445312L514.1478583569336,405.00942314453124Q516.3559783569336,411.91952314453124,522.9146783569336,418.2033231445312Q529.5338783569335,424.54512314453126,538.1677783569336,427.9617231445312Q547.0863783569336,431.49082314453125,555.2438783569336,430.66742314453126Q563.9004783569336,429.79362314453124,569.9744783569336,424.03482314453123Q573.1645783569336,420.94552314453125,574.8398783569336,415.6571231445312Q576.4588783569336,410.54672314453126,576.4099783569336,404.3129231445312Q576.3635783569335,398.39702314453126,574.8556783569336,393.05622314453126Q573.4402783569336,388.0430231445313,571.2639783569336,385.29422314453126L579.1044783569336,379.08712314453123Z" fill="#FFFFFF" fill-opacity="1"/></g><g style="mix-blend-mode:passthrough" transform="matrix(0.988189697265625,0.1532353311777115,-0.1532353311777115,0.988189697265625,8.199682566123556,-12.131332841413268)"><path d="M138.3444387451172,121.70582314453125Q75.90266874511718,198.68272314453125,83.65691774511718,278.05572314453127Q312.1993387451172,262.20572314453125,312.1993387451172,47.20597834453125Q200.78633874511718,44.72837314453125,138.3444387451172,121.70582314453125Z" fill="#FFFFFF" fill-opacity="1"/><path d="M142.2275387451172,124.85562314453125Q81.07841874511719,200.23972314453124,88.63321874511719,277.5697231445313L83.65691774511718,278.05572314453127L83.31098974511718,273.0677231445312Q195.7013387451172,265.27372314453123,251.5103387451172,208.90072314453124Q307.1993387451172,152.64972314453127,307.1993387451172,47.20599364453125L312.1993387451172,47.20597834453125L312.0883387451172,52.20474314453125Q257.46533874511715,50.99004314453125,214.9983387451172,69.18792314453125Q172.6702387451172,87.32632314453124,142.2275387451172,124.85562314453125L142.2275387451172,124.85562314453125ZM134.4613387451172,118.55592314453125Q166.4605387451172,79.10782314453125,211.05933874511717,59.996323144531246Q255.51933874511718,40.94430314453125,312.3103387451172,42.20721314453125L317.1993387451172,42.31593314453125L317.1993387451172,47.20599364453125Q317.1993387451172,156.76272314453126,258.6173387451172,215.93572314453124Q200.1553387451172,274.98872314453126,84.00284874511719,283.0437231445312L79.15326874511719,283.3797231445312L78.68060874511718,278.54172314453126Q70.72683874511719,197.12672314453124,134.4613387451172,118.55592314453125L134.4613387451172,118.55592314453125Z" fill="#FFFEFE" fill-opacity="1"/></g><g style="mix-blend-mode:passthrough"><ellipse cx="286.41417694091797" cy="322.12872314453125" rx="250" ry="250" fill-opacity="0" stroke-opacity="1" stroke="#FFFFFF" fill="none" stroke-width="10"/></g></g></svg>